@startuml X 
scale 1
'   공통 ===============================================================================
    abstract class Object {
        int hp
    }
'   유닛    
    abstract class Unit extends Object implements Movable, Attackable {
        void attack(target: Object)
        void move(target: Point)
    }
    abstract class BionicUnit implements Healable, Unit {
            
    }
    abstract class MechanicUnit extends Unit implements Repairable {
        
    }
'   건물    
    abstract class Structure extends Object {
        
    }    
    abstract class BionicStructure extends Structure implements Zerg{
        
    }       
    abstract class MechanicStructure extends Structure {
'   기타 클래스
    }    
    class Point {
        int x
        int y
    }    
    class Mineral {
        int amount
    }
'   인터페이스    
    interface Movable {
        void move(target: Point)
    }
    interface Attackable {
        void attack(target: Object)
    }    
    interface Repairable {
        ' Scv가 repair 가능
    }
    interface Healable {
        ' 메딕이 치료가능
        ' Teran, Unit, Bionic
        
    }
' 저그 ===============================================================================
    interface Zerg {
        void selfAid()
    }    
    class Zergling extends BionicUnit implements Zerg  {

    }
    class Hydra extends BionicUnit implements Zerg  {

    }    
    class SpawningPool extends BionicStructure  {

    }
' 프로토스 =============================================================================
    interface Protoss {  
        int shield              
        void shieldRecover()        
    }
    class Zealot extends BionicUnit implements Protoss, Healable  {

    }
    class Dragun extends MechanicUnit implements Protoss  {

    }
    class Nexus extends MechanicStructure implements Protoss{

    }
' 테란 ===============================================================================
    interface Terran {

    }
    class Marine extends BionicUnit implements Terran {

    }
    class Medic extends BionicUnit implements Terran {
        void heal(target: Healable)        
        void attack()
    }
    class Tank extends MechanicUnit implements Terran  {                
        bool isSiege
                
    }
    class Vulture extends MechanicUnit implements Terran  {

    }

    class Scv extends MechanicUnit implements Terran, Healable {
        int getMineral()
        void repair(target: Repairable)
        void mine(target: Mineral)
        
    }
    class CommandCenter extends MechanicStructure implements Terran  {
        Scv buildScv()
    }
    Movable *-- Point
    Scv *-- Mineral
    CommandCenter *-- Scv
@enduml